<mxfile host="app.diagrams.net" modified="2023-11-03T14:59:51.561Z" agent="Mozilla/5.0 (Macintosh; Intel Mac OS X 10_15_7) AppleWebKit/537.36 (KHTML, like Gecko) Chrome/117.0.0.0 Safari/537.36" etag="s3Qg67DZpXJd-aqLWIuD" version="22.0.8" type="github">
  <diagram name="Page-1" id="_lqvvtqr_r5HKlrF7K41">
    <mxGraphModel dx="1912" dy="1213" grid="1" gridSize="10" guides="1" tooltips="1" connect="1" arrows="1" fold="1" page="1" pageScale="1" pageWidth="827" pageHeight="1169" math="0" shadow="0">
      <root>
        <mxCell id="0" />
        <mxCell id="1" parent="0" />
        <mxCell id="c19kNMR067urxkXElo_r-11" style="edgeStyle=orthogonalEdgeStyle;rounded=0;orthogonalLoop=1;jettySize=auto;html=1;exitX=0.5;exitY=1;exitDx=0;exitDy=0;exitPerimeter=0;entryX=0;entryY=0.5;entryDx=0;entryDy=0;strokeWidth=4;fontSize=18;" parent="1" source="c19kNMR067urxkXElo_r-1" target="c19kNMR067urxkXElo_r-2" edge="1">
          <mxGeometry relative="1" as="geometry">
            <Array as="points">
              <mxPoint x="90" y="430" />
            </Array>
          </mxGeometry>
        </mxCell>
        <mxCell id="c19kNMR067urxkXElo_r-1" value="" style="verticalLabelPosition=bottom;shadow=0;dashed=0;align=center;html=1;verticalAlign=top;shape=mxgraph.electrical.radio.aerial_-_antenna_1;strokeWidth=2;fontSize=18;" parent="1" vertex="1">
          <mxGeometry x="50" y="310" width="80" height="100" as="geometry" />
        </mxCell>
        <mxCell id="c19kNMR067urxkXElo_r-12" style="edgeStyle=orthogonalEdgeStyle;rounded=0;orthogonalLoop=1;jettySize=auto;html=1;entryX=0;entryY=0.5;entryDx=0;entryDy=0;strokeWidth=4;fontSize=18;" parent="1" source="c19kNMR067urxkXElo_r-2" target="c19kNMR067urxkXElo_r-3" edge="1">
          <mxGeometry relative="1" as="geometry" />
        </mxCell>
        <mxCell id="c19kNMR067urxkXElo_r-2" value="&lt;font style=&quot;font-size: 18px;&quot;&gt;BPF&lt;/font&gt;" style="rounded=0;whiteSpace=wrap;html=1;strokeWidth=2;fontSize=18;" parent="1" vertex="1">
          <mxGeometry x="220" y="400" width="100" height="60" as="geometry" />
        </mxCell>
        <mxCell id="c19kNMR067urxkXElo_r-13" style="edgeStyle=orthogonalEdgeStyle;rounded=0;orthogonalLoop=1;jettySize=auto;html=1;entryX=0;entryY=0.5;entryDx=0;entryDy=0;strokeWidth=4;fontSize=18;" parent="1" source="c19kNMR067urxkXElo_r-3" target="c19kNMR067urxkXElo_r-4" edge="1">
          <mxGeometry relative="1" as="geometry" />
        </mxCell>
        <mxCell id="c19kNMR067urxkXElo_r-3" value="&lt;font style=&quot;font-size: 18px;&quot;&gt;LNA&lt;/font&gt;" style="triangle;whiteSpace=wrap;html=1;strokeWidth=2;align=left;fontSize=18;" parent="1" vertex="1">
          <mxGeometry x="441" y="390" width="60" height="80" as="geometry" />
        </mxCell>
        <mxCell id="c19kNMR067urxkXElo_r-14" style="edgeStyle=orthogonalEdgeStyle;rounded=0;orthogonalLoop=1;jettySize=auto;html=1;exitX=1;exitY=0.5;exitDx=0;exitDy=0;entryX=0;entryY=0.5;entryDx=0;entryDy=0;strokeWidth=4;fontSize=18;" parent="1" source="c19kNMR067urxkXElo_r-4" target="c19kNMR067urxkXElo_r-5" edge="1">
          <mxGeometry relative="1" as="geometry" />
        </mxCell>
        <mxCell id="c19kNMR067urxkXElo_r-4" value="" style="shape=sumEllipse;perimeter=ellipsePerimeter;whiteSpace=wrap;html=1;backgroundOutline=1;strokeWidth=2;fontSize=18;" parent="1" vertex="1">
          <mxGeometry x="620" y="390" width="80" height="80" as="geometry" />
        </mxCell>
        <mxCell id="c19kNMR067urxkXElo_r-15" style="edgeStyle=orthogonalEdgeStyle;rounded=0;orthogonalLoop=1;jettySize=auto;html=1;exitX=1;exitY=0.5;exitDx=0;exitDy=0;entryX=0;entryY=0.5;entryDx=0;entryDy=0;strokeWidth=4;fontSize=18;" parent="1" source="c19kNMR067urxkXElo_r-5" target="c19kNMR067urxkXElo_r-6" edge="1">
          <mxGeometry relative="1" as="geometry" />
        </mxCell>
        <mxCell id="c19kNMR067urxkXElo_r-5" value="&lt;font style=&quot;font-size: 18px;&quot;&gt;AMP&lt;/font&gt;" style="triangle;whiteSpace=wrap;html=1;strokeWidth=2;align=left;fontSize=18;" parent="1" vertex="1">
          <mxGeometry x="857" y="390" width="60" height="80" as="geometry" />
        </mxCell>
        <mxCell id="c19kNMR067urxkXElo_r-16" style="edgeStyle=orthogonalEdgeStyle;rounded=0;orthogonalLoop=1;jettySize=auto;html=1;exitX=1;exitY=0.5;exitDx=0;exitDy=0;strokeWidth=4;fontSize=18;" parent="1" source="c19kNMR067urxkXElo_r-6" target="c19kNMR067urxkXElo_r-7" edge="1">
          <mxGeometry relative="1" as="geometry" />
        </mxCell>
        <mxCell id="c19kNMR067urxkXElo_r-6" value="&lt;font style=&quot;font-size: 18px;&quot;&gt;AMP&lt;/font&gt;" style="triangle;whiteSpace=wrap;html=1;strokeWidth=2;align=left;fontSize=18;" parent="1" vertex="1">
          <mxGeometry x="1042" y="390" width="60" height="80" as="geometry" />
        </mxCell>
        <mxCell id="c19kNMR067urxkXElo_r-17" style="edgeStyle=orthogonalEdgeStyle;rounded=0;orthogonalLoop=1;jettySize=auto;html=1;entryX=0.5;entryY=1;entryDx=0;entryDy=0;strokeWidth=4;fontSize=18;" parent="1" source="c19kNMR067urxkXElo_r-7" target="c19kNMR067urxkXElo_r-10" edge="1">
          <mxGeometry relative="1" as="geometry" />
        </mxCell>
        <mxCell id="c19kNMR067urxkXElo_r-7" value="&lt;font style=&quot;font-size: 18px;&quot;&gt;LPF&lt;/font&gt;" style="rounded=0;whiteSpace=wrap;html=1;strokeWidth=2;fontSize=18;" parent="1" vertex="1">
          <mxGeometry x="1220" y="400" width="100" height="60" as="geometry" />
        </mxCell>
        <mxCell id="c19kNMR067urxkXElo_r-18" style="edgeStyle=orthogonalEdgeStyle;rounded=0;orthogonalLoop=1;jettySize=auto;html=1;entryX=0;entryY=0.5;entryDx=0;entryDy=0;strokeWidth=4;fontSize=18;" parent="1" source="c19kNMR067urxkXElo_r-8" target="c19kNMR067urxkXElo_r-9" edge="1">
          <mxGeometry relative="1" as="geometry" />
        </mxCell>
        <mxCell id="c19kNMR067urxkXElo_r-8" value="&lt;font style=&quot;font-size: 18px;&quot;&gt;OSC&lt;/font&gt;" style="ellipse;whiteSpace=wrap;html=1;aspect=fixed;strokeWidth=2;fontSize=18;" parent="1" vertex="1">
          <mxGeometry x="620" y="710" width="80" height="80" as="geometry" />
        </mxCell>
        <mxCell id="c19kNMR067urxkXElo_r-19" style="edgeStyle=orthogonalEdgeStyle;rounded=0;orthogonalLoop=1;jettySize=auto;html=1;exitX=1;exitY=0.5;exitDx=0;exitDy=0;entryX=0.5;entryY=1;entryDx=0;entryDy=0;strokeWidth=4;fontSize=18;" parent="1" source="c19kNMR067urxkXElo_r-9" target="c19kNMR067urxkXElo_r-4" edge="1">
          <mxGeometry relative="1" as="geometry" />
        </mxCell>
        <mxCell id="c19kNMR067urxkXElo_r-9" value="&lt;font style=&quot;font-size: 18px;&quot;&gt;AMP&lt;/font&gt;" style="triangle;whiteSpace=wrap;html=1;rotation=-90;strokeWidth=2;horizontal=1;align=left;fontSize=18;" parent="1" vertex="1">
          <mxGeometry x="630" y="580" width="60" height="80" as="geometry" />
        </mxCell>
        <mxCell id="c19kNMR067urxkXElo_r-10" value="&lt;font style=&quot;font-size: 18px;&quot;&gt;&amp;nbsp; ADC&lt;/font&gt;" style="shape=offPageConnector;whiteSpace=wrap;html=1;rotation=90;strokeWidth=2;align=center;horizontal=0;fontSize=18;" parent="1" vertex="1">
          <mxGeometry x="1413" y="390" width="80" height="80" as="geometry" />
        </mxCell>
        <mxCell id="c19kNMR067urxkXElo_r-20" value="&lt;font style=&quot;font-size: 18px;&quot;&gt;MAX2615&lt;br style=&quot;font-size: 18px;&quot;&gt;G = 18.6 dB&lt;br style=&quot;font-size: 18px;&quot;&gt;NF = 2 dB&lt;br style=&quot;font-size: 18px;&quot;&gt;&lt;/font&gt;" style="text;html=1;align=center;verticalAlign=middle;resizable=0;points=[];autosize=1;strokeColor=none;fillColor=none;fontSize=18;" parent="1" vertex="1">
          <mxGeometry x="401" y="310" width="120" height="80" as="geometry" />
        </mxCell>
        <mxCell id="Xvh-cpe1vp6GbkUaVYjH-1" value="&lt;font style=&quot;font-size: 18px;&quot;&gt;VBF-2435+&lt;br style=&quot;font-size: 18px;&quot;&gt;L = 2.0 dB&lt;br style=&quot;font-size: 18px;&quot;&gt;&lt;/font&gt;" style="text;html=1;align=center;verticalAlign=middle;resizable=0;points=[];autosize=1;strokeColor=none;fillColor=none;fontSize=18;" vertex="1" parent="1">
          <mxGeometry x="210" y="320" width="120" height="60" as="geometry" />
        </mxCell>
        <mxCell id="Xvh-cpe1vp6GbkUaVYjH-2" value="&lt;font style=&quot;font-size: 18px;&quot;&gt;f&lt;sub style=&quot;font-size: 18px;&quot;&gt;LO&lt;/sub&gt; = 2.34GHz&lt;/font&gt;" style="text;html=1;align=left;verticalAlign=middle;resizable=0;points=[];autosize=1;strokeColor=none;fillColor=none;fontSize=18;" vertex="1" parent="1">
          <mxGeometry x="710" y="730" width="140" height="40" as="geometry" />
        </mxCell>
        <mxCell id="Xvh-cpe1vp6GbkUaVYjH-3" value="&lt;font style=&quot;font-size: 18px;&quot;&gt;HMC213&lt;br style=&quot;font-size: 18px;&quot;&gt;L = 10 dB&lt;br style=&quot;font-size: 18px;&quot;&gt;&lt;/font&gt;" style="text;html=1;align=center;verticalAlign=middle;resizable=0;points=[];autosize=1;strokeColor=none;fillColor=none;fontSize=18;" vertex="1" parent="1">
          <mxGeometry x="610" y="320" width="100" height="60" as="geometry" />
        </mxCell>
        <mxCell id="Xvh-cpe1vp6GbkUaVYjH-4" value="&lt;font style=&quot;font-size: 18px;&quot;&gt;SBLP-39+&lt;br style=&quot;font-size: 18px;&quot;&gt;L = 2dB&lt;/font&gt;" style="text;html=1;align=center;verticalAlign=middle;resizable=0;points=[];autosize=1;strokeColor=none;fillColor=none;fontSize=18;" vertex="1" parent="1">
          <mxGeometry x="1210" y="320" width="110" height="60" as="geometry" />
        </mxCell>
        <mxCell id="Xvh-cpe1vp6GbkUaVYjH-5" value="&lt;font style=&quot;font-size: 18px;&quot;&gt;VERT2450&lt;br style=&quot;font-size: 18px;&quot;&gt;G = 3dBi&lt;/font&gt;" style="text;html=1;align=center;verticalAlign=middle;resizable=0;points=[];autosize=1;strokeColor=none;fillColor=none;fontSize=18;" vertex="1" parent="1">
          <mxGeometry x="40" y="250" width="110" height="60" as="geometry" />
        </mxCell>
        <mxCell id="Xvh-cpe1vp6GbkUaVYjH-6" value="&lt;font style=&quot;font-size: 18px;&quot;&gt;Power = -60.4 dBm&lt;br style=&quot;font-size: 18px;&quot;&gt;Freq = 2.37 GHz&lt;br style=&quot;font-size: 18px;&quot;&gt;Freq = 2.43 GHz&lt;/font&gt;" style="text;html=1;align=center;verticalAlign=middle;resizable=0;points=[];autosize=1;strokeColor=none;fillColor=none;fontSize=18;" vertex="1" parent="1">
          <mxGeometry x="50" y="460" width="180" height="80" as="geometry" />
        </mxCell>
        <mxCell id="Xvh-cpe1vp6GbkUaVYjH-7" value="&lt;font style=&quot;font-size: 18px;&quot;&gt;Power = -28.8 dBm&lt;br style=&quot;font-size: 18px;&quot;&gt;Freq = 30 MHz&lt;br style=&quot;font-size: 18px;&quot;&gt;&lt;/font&gt;" style="text;html=1;align=center;verticalAlign=middle;resizable=0;points=[];autosize=1;strokeColor=none;fillColor=none;fontSize=18;" vertex="1" parent="1">
          <mxGeometry x="1283" y="470" width="180" height="60" as="geometry" />
        </mxCell>
        <mxCell id="Xvh-cpe1vp6GbkUaVYjH-13" value="&lt;font style=&quot;font-size: 18px;&quot;&gt;&lt;br&gt;Power = -63.4 dBm&lt;br style=&quot;font-size: 18px;&quot;&gt;Freq = 30 MHz&lt;br&gt;Freq = 90 MHz&lt;br&gt;Freq = 2.37 MHz&lt;br&gt;Freq = 2.43 MHz&lt;br style=&quot;font-size: 18px;&quot;&gt;&lt;/font&gt;" style="text;html=1;align=center;verticalAlign=middle;resizable=0;points=[];autosize=1;strokeColor=none;fillColor=none;fontSize=18;" vertex="1" parent="1">
          <mxGeometry x="684" y="427" width="180" height="140" as="geometry" />
        </mxCell>
        <mxCell id="Xvh-cpe1vp6GbkUaVYjH-18" value="HMC480&lt;br style=&quot;font-size: 18px;&quot;&gt;G = 20 dB&lt;br style=&quot;font-size: 18px;&quot;&gt;NF = 3.5 dB" style="text;html=1;align=center;verticalAlign=middle;resizable=0;points=[];autosize=1;strokeColor=none;fillColor=none;fontSize=18;" vertex="1" parent="1">
          <mxGeometry x="807" y="310" width="120" height="80" as="geometry" />
        </mxCell>
        <mxCell id="Xvh-cpe1vp6GbkUaVYjH-20" value="&lt;font style=&quot;font-size: 18px;&quot;&gt;Power = -62.4 dBm&lt;br&gt;&lt;/font&gt;" style="text;html=1;align=center;verticalAlign=middle;resizable=0;points=[];autosize=1;strokeColor=none;fillColor=none;fontSize=18;" vertex="1" parent="1">
          <mxGeometry x="280" y="480" width="180" height="40" as="geometry" />
        </mxCell>
        <mxCell id="Xvh-cpe1vp6GbkUaVYjH-21" value="&lt;font style=&quot;font-size: 18px;&quot;&gt;Power = -53.4 dBm&lt;br style=&quot;font-size: 18px;&quot;&gt;Freq = 2.37 GHz&lt;br style=&quot;font-size: 18px;&quot;&gt;Freq = 2.43 GHz&lt;/font&gt;" style="text;html=1;align=center;verticalAlign=middle;resizable=0;points=[];autosize=1;strokeColor=none;fillColor=none;fontSize=18;" vertex="1" parent="1">
          <mxGeometry x="461" y="460" width="180" height="80" as="geometry" />
        </mxCell>
        <mxCell id="Xvh-cpe1vp6GbkUaVYjH-22" value="&lt;font style=&quot;font-size: 18px;&quot;&gt;HMC636&lt;br style=&quot;font-size: 18px;&quot;&gt;G = 9 dB&lt;br style=&quot;font-size: 18px;&quot;&gt;NF = 1.8 dB&lt;br style=&quot;font-size: 18px;&quot;&gt;&lt;/font&gt;" style="text;html=1;align=center;verticalAlign=middle;resizable=0;points=[];autosize=1;strokeColor=none;fillColor=none;fontSize=18;" vertex="1" parent="1">
          <mxGeometry x="700" y="580" width="120" height="80" as="geometry" />
        </mxCell>
        <mxCell id="Xvh-cpe1vp6GbkUaVYjH-24" value="&lt;font style=&quot;font-size: 18px;&quot;&gt;&lt;br&gt;Power = -45.1 dBm&lt;br style=&quot;font-size: 18px;&quot;&gt;Freq = 30 MHz&lt;br&gt;Freq = 90 MHz&lt;br&gt;Freq = 2.37 MHz&lt;br&gt;Freq = 2.43 MHz&lt;br style=&quot;font-size: 18px;&quot;&gt;&lt;/font&gt;" style="text;html=1;align=center;verticalAlign=middle;resizable=0;points=[];autosize=1;strokeColor=none;fillColor=none;fontSize=18;" vertex="1" parent="1">
          <mxGeometry x="868" y="427" width="180" height="140" as="geometry" />
        </mxCell>
        <mxCell id="Xvh-cpe1vp6GbkUaVYjH-25" value="&lt;font style=&quot;font-size: 18px;&quot;&gt;&lt;br&gt;Power = -26.8 dBm&lt;br style=&quot;font-size: 18px;&quot;&gt;Freq = 30 MHz&lt;br&gt;Freq = 90 MHz&lt;br&gt;Freq = 2.37 MHz&lt;br&gt;Freq = 2.43 MHz&lt;br style=&quot;font-size: 18px;&quot;&gt;&lt;/font&gt;" style="text;html=1;align=center;verticalAlign=middle;resizable=0;points=[];autosize=1;strokeColor=none;fillColor=none;fontSize=18;" vertex="1" parent="1">
          <mxGeometry x="1051" y="427" width="180" height="140" as="geometry" />
        </mxCell>
        <mxCell id="Xvh-cpe1vp6GbkUaVYjH-28" value="HMC480&lt;br style=&quot;font-size: 18px;&quot;&gt;G = 20 dB&lt;br style=&quot;font-size: 18px;&quot;&gt;NF = 3.5 dB" style="text;html=1;align=center;verticalAlign=middle;resizable=0;points=[];autosize=1;strokeColor=none;fillColor=none;fontSize=18;" vertex="1" parent="1">
          <mxGeometry x="1000" y="310" width="120" height="80" as="geometry" />
        </mxCell>
      </root>
    </mxGraphModel>
  </diagram>
</mxfile>
